PathFileType	4	(X/Y/Z)	./resultDataOpenSim/trcMotMarkerGrf/sub10/qtm-14-04.trc
DataRate	CameraRate	NumFrames	NumMarkers	Units	OrigDataRate	OrigDataStartFrame	OrigNumFrames
250.000000	250.000000	9	24	m	250.000000	123	490
Frame#	Time	L.Toe.Tip			R.Toe.Tip			L.Ankle.Lat			R.Ankle.Lat			L.Ankle.Med			R.Ankle.Med			L.Heel			R.Heel			L.Knee.Lat			R.Knee.Lat			L.Knee.Med			R.Knee.Med			L.Thigh.Upper			R.Thigh.Upper			L.ASIS			R.ASIS			V.Sacral			L.Acromium			R.Acromium			C7			L.Elbow			R.Elbow			L.Wrist.Lat			R.Wrist.Lat
		X1	Y1	Z1	X2	Y2	Z2	X3	Y3	Z3	X4	Y4	Z4	X5	Y5	Z5	X6	Y6	Z6	X7	Y7	Z7	X8	Y8	Z8	X9	Y9	Z9	X10	Y10	Z10	X11	Y11	Z11	X12	Y12	Z12	X13	Y13	Z13	X14	Y14	Z14	X15	Y15	Z15	X16	Y16	Z16	X17	Y17	Z17	X18	Y18	Z18	X19	Y19	Z19	X20	Y20	Z20	X21	Y21	Z21	X22	Y22	Z22	X23	Y23	Z23	X24	Y24	Z24

123	0.488	-0.23877044	0.094937484	-0.17220684	-0.73332841	0.038750686	-0.0217829	-0.37189633	0.080724505	-0.20121815	-0.87795578	0.057386402	0.00641133	-0.367294	0.10901899	-0.1182173	-0.85148718	0.080405859	-0.079042087	-0.42191846	0.033028021	-0.15533864	-0.92532576	0.03376269	-0.044608868	-0.44656211	0.46246079	-0.22446242	-0.74312548	0.43816022	0.046524229	-0.43644123	0.44476866	-0.10493378	-0.7268028	0.44013515	-0.083037182	-0.59197783	0.82679616	-0.27588426	-0.68151943	0.84899519	0.099196971	-0.5586162	0.93826041	-0.2013365	-0.58963234	0.94155034	0.037938911	-0.77172818	0.94599491	-0.11471746	-0.6498773	1.4124199	-0.23129649	-0.64822421	1.4006507	0.087591341	-0.72785011	1.4319966	-0.074280637	-0.79009385	1.1023896	-0.30041986	-0.67973752	1.0497526	0.16607201	-0.68957585	0.87960317	-0.33041378	-0.46484025	0.92058874	0.18888804
124	0.492	-0.22199909	0.099463954	-0.16942539	-0.7332962	0.038719932	-0.021773779	-0.35443601	0.081271115	-0.19947047	-0.87775469	0.057560729	0.0062553834	-0.35096227	0.11038381	-0.11684799	-0.85112886	0.080429586	-0.079251534	-0.40338123	0.032449359	-0.15368609	-0.92530553	0.033969523	-0.044861054	-0.4403186	0.46053788	-0.22443384	-0.74010219	0.43736358	0.046389321	-0.43047339	0.44294732	-0.10485665	-0.72352972	0.43920211	-0.083187466	-0.58507621	0.82562229	-0.27580512	-0.67697451	0.84783173	0.09869332	-0.55188943	0.93686032	-0.20097384	-0.58462174	0.94029512	0.038216639	-0.76499858	0.94463315	-0.11486666	-0.64359056	1.4107844	-0.23106381	-0.64234228	1.3991192	0.087843673	-0.72185647	1.4305485	-0.074081859	-0.7854265	1.1016391	-0.30023518	-0.67221473	1.0478901	0.16652546	-0.68762813	0.87786699	-0.33074858	-0.45527342	0.9216492	0.18771704
125	0.496	-0.20568759	0.10406672	-0.16668572	-0.73327944	0.038705515	-0.021746463	-0.33735322	0.08213864	-0.19789216	-0.87761896	0.057746574	0.0060670152	-0.33513518	0.11186064	-0.11560148	-0.85070922	0.080508287	-0.079420504	-0.38529387	0.03220507	-0.15226664	-0.92528585	0.034209703	-0.045092745	-0.43410773	0.45861667	-0.22439227	-0.73712802	0.43655079	0.046238837	-0.42451975	0.44109379	-0.10465473	-0.72017194	0.43826	-0.083287049	-0.57817449	0.82437437	-0.27570971	-0.67277897	0.84671418	0.098722286	-0.54514641	0.93542831	-0.20058555	-0.57959164	0.93901061	0.038504925	-0.75790343	0.94330909	-0.114436	-0.63723467	1.4091098	-0.23082575	-0.63641889	1.3975589	0.088098584	-0.71595549	1.4290657	-0.073890159	-0.78084895	1.1008493	-0.3001762	-0.66470665	1.0460099	0.16695157	-0.68539416	0.87615482	-0.33105863	-0.44579623	0.92269161	0.18653009
126	0.5	-0.18989454	0.10866288	-0.16404243	-0.73328765	0.038691838	-0.021709742	-0.32072136	0.083299308	-0.19647909	-0.87755114	0.0579303	0.0058437155	-0.3199196	0.11336779	-0.11442154	-0.85031053	0.080628728	-0.079557917	-0.36772511	0.032228432	-0.15108244	-0.92526715	0.034492909	-0.045316741	-0.4278586	0.4567393	-0.22430981	-0.73427083	0.43571489	0.046043555	-0.41857025	0.43925632	-0.10430345	-0.71675324	0.43730985	-0.083340576	-0.57127549	0.82305643	-0.27559671	-0.66870561	0.84562159	0.098957855	-0.53838333	0.93396384	-0.20017506	-0.57454248	0.9376937	0.038803199	-0.75099495	0.9418835	-0.11408617	-0.6308016	1.4074002	-0.23058584	-0.63048472	1.3959708	0.088350826	-0.71016668	1.4275517	-0.073707556	-0.77613792	1.1000133	-0.2999144	-0.65721904	1.0441158	0.16734481	-0.68277736	0.87448664	-0.3313105	-0.436406	0.923715	0.18531744
127	0.504	-0.17465956	0.11322066	-0.16151295	-0.73331641	0.038673603	-0.021665701	-0.30460528	0.084704949	-0.19522293	-0.87750866	0.058105726	0.0056063423	-0.30542584	0.114833	-0.11338518	-0.8500493	0.080753379	-0.079696372	-0.35071557	0.032475882	-0.15021404	-0.92524609	0.034820248	-0.045539893	-0.42152558	0.45493629	-0.22416368	-0.73152668	0.43485891	0.045805668	-0.41263647	0.43747312	-0.10379808	-0.71332165	0.43634672	-0.083377363	-0.56436677	0.82167471	-0.27545629	-0.66447338	0.84452794	0.09900004	-0.53159865	0.93247345	-0.19974319	-0.56948157	0.93635012	0.03911061	-0.74472389	0.94023264	-0.11438842	-0.62430175	1.4056613	-0.23034518	-0.62456668	1.3943559	0.088594006	-0.70433386	1.4260079	-0.073570781	-0.77126465	1.0991279	-0.29944796	-0.64975779	1.0422116	0.16770419	-0.68002076	0.87286307	-0.3315379	-0.42710196	0.92472105	0.18407856
128	0.508	-0.16000054	0.11773491	-0.15907081	-0.73335753	0.038650791	-0.021613522	-0.28903631	0.086287241	-0.19411109	-0.87745192	0.058283123	0.0053802599	-0.29168472	0.11620934	-0.11257117	-0.84995598	0.080841327	-0.07987865	-0.33430651	0.032906602	-0.14980741	-0.92521955	0.035190442	-0.045757406	-0.41507964	0.45322843	-0.22395489	-0.72882662	0.43399232	0.045550608	-0.40674792	0.43575062	-0.1031681	-0.70994156	0.4353683	-0.083438822	-0.55743969	0.82022693	-0.27528466	-0.66003921	0.84341008	0.098803615	-0.52479661	0.93096608	-0.19928872	-0.56441816	0.93498416	0.039429582	-0.7390313	0.93836712	-0.11536064	-0.61779913	1.4038949	-0.23011505	-0.61866448	1.3927175	0.0888168	-0.6981785	1.424425	-0.073565252	-0.76629039	1.0981977	-0.2988962	-0.6423281	1.0402994	0.16803206	-0.67748489	0.87125094	-0.33178888	-0.41788912	0.92571494	0.18282083
129	0.512	-0.14593939	0.1221631	-0.15672176	-0.73340609	0.038625291	-0.021551263	-0.27402836	0.087963844	-0.193121	-0.87735682	0.058488197	0.0051763939	-0.27861186	0.11749357	-0.11197689	-0.84991654	0.080892544	-0.080110777	-0.31854411	0.033458208	-0.14993861	-0.9251868	0.035607703	-0.045959098	-0.40848785	0.4516273	-0.22370387	-0.72607578	0.43312854	0.045304549	-0.40092315	0.43407616	-0.10246859	-0.70663347	0.43437264	-0.083540511	-0.5504935	0.81871135	-0.27509164	-0.65547411	0.84224846	0.098490156	-0.51799005	0.9294466	-0.19881775	-0.55935424	0.93358985	0.039766068	-0.73345184	0.93641111	-0.11673567	-0.61135719	1.4021054	-0.22991138	-0.61276214	1.3910613	0.089008879	-0.69163148	1.4228037	-0.073713355	-0.76126761	1.0972382	-0.29833723	-0.63493218	1.03838	0.16832792	-0.67532076	0.86961125	-0.33206183	-0.40877544	0.9267007	0.18154869
130	0.516	-0.13251942	0.12640694	-0.15455074	-0.73346355	0.03859934	-0.021476989	-0.25962584	0.089645426	-0.19222064	-0.87721298	0.058749961	0.0049915912	-0.26607927	0.11870793	-0.1115093	-0.84979466	0.080957404	-0.080345272	-0.30344602	0.034055495	-0.15043834	-0.92514755	0.036081452	-0.046149184	-0.4017061	0.45014413	-0.2234334	-0.72322722	0.43227335	0.045070555	-0.39514841	0.43245012	-0.10175224	-0.70330647	0.43335279	-0.083651442	-0.54352571	0.81713454	-0.27488637	-0.6508206	0.84103577	0.098133417	-0.51119447	0.92791907	-0.19833742	-0.55427812	0.93215447	0.040119518	-0.72764353	0.93448836	-0.11826316	-0.60494574	1.4003112	-0.22973365	-0.60683695	1.3893931	0.089171552	-0.68501726	1.421168	-0.073905701	-0.75621444	1.0962683	-0.29779285	-0.6275712	1.036456	0.16858678	-0.67344139	0.86794295	-0.33233571	-0.39976862	0.92768157	0.18026364
131	0.52	-0.11977709	0.13034711	-0.15265062	-0.73353346	0.038574961	-0.02139215	-0.24591153	0.091237985	-0.19138084	-0.87703148	0.059082339	0.004816181	-0.25399304	0.11986716	-0.11103692	-0.84956034	0.081088185	-0.080542283	-0.28903782	0.03462063	-0.15091182	-0.9250996	0.036621148	-0.046357862	-0.39469007	0.44880224	-0.22315611	-0.72029235	0.43142121	0.044831686	-0.38938441	0.43088602	-0.10106476	-0.69979712	0.43231711	-0.083720548	-0.53652252	0.81550552	-0.27466114	-0.64608212	0.8397749	0.097749857	-0.50442531	0.92639159	-0.19784759	-0.5491725	0.93067133	0.040482559	-0.72172838	0.93266295	-0.11965363	-0.59848117	1.3985408	-0.2295741	-0.60086176	1.3877205	0.089317011	-0.67871462	1.4195322	-0.074022387	-0.75113031	1.0952995	-0.29726319	-0.62025322	1.0345336	0.16880676	-0.67158163	0.86628263	-0.33259748	-0.39087602	0.92866274	0.17897114
